<svg width="87" height="98" viewBox="0 0 87 98" fill="none" xmlns="http://www.w3.org/2000/svg">
<path d="M23.209 12.0391C30.1621 12.0391 34.8366 12.651 37.2324 13.875C39.0293 14.7865 39.9277 17.1302 39.9277 20.9062C39.9277 24.6823 39.2897 26.5703 38.0137 26.5703C36.972 26.5703 35.2663 25.4766 32.8965 23.2891C30.5267 21.0755 28.7298 19.6302 27.5059 18.9531C26.2819 18.276 24.6803 17.9375 22.7012 17.9375C20.748 17.9375 19.0684 18.5755 17.6621 19.8516C16.2819 21.1276 15.5918 22.651 15.5918 24.4219C15.5918 26.7917 16.8939 28.9141 19.498 30.7891C20.8001 31.7266 23.8079 33.25 28.5215 35.3594C33.235 37.4688 36.5944 39.5391 38.5996 41.5703C41.4382 44.4609 42.8574 47.7161 42.8574 51.3359C42.8574 58.888 39.1204 63.9792 31.6465 66.6094C29.4329 67.3906 27.1673 67.7812 24.8496 67.7812H23.4434C20.5788 67.7812 17.4017 67.4557 13.9121 66.8047C10.4225 66.1536 8.22201 65.5156 7.31055 64.8906C5.61784 63.7188 4.77148 60.9974 4.77148 56.7266V55.3984C4.77148 52.638 5.51367 51.2578 6.99805 51.2578C8.03971 51.2578 9.69336 52.5859 11.959 55.2422C14.2246 57.8984 16.1257 59.6693 17.6621 60.5547C19.2246 61.4401 21.2038 61.8828 23.5996 61.8828C26.0215 61.8828 28.0527 61.1927 29.6934 59.8125C31.334 58.4323 32.1543 56.9349 32.1543 55.3203C32.1543 52.8984 31.4251 50.9062 29.9668 49.3438C28.5085 47.7812 25.6048 45.9974 21.2559 43.9922C16.9069 41.987 13.8991 40.3724 12.2324 39.1484C7.64909 35.763 5.35742 31.7005 5.35742 26.9609C5.35742 25.9714 5.46159 24.9427 5.66992 23.875C6.5293 19.3958 9.4069 16.0104 14.3027 13.7188C16.6986 12.599 19.1986 12.0391 21.8027 12.0391H23.209Z" fill="#02FFC2"/>
<path d="M56.373 55.6641C56.373 57.1484 56.6335 58.1641 57.1543 58.7109C57.7012 59.2318 58.8991 59.4922 60.748 59.4922H62.623C65.3053 59.4922 67.4928 58.4896 69.1855 56.4844C70.8783 54.4792 71.7246 51.6406 71.7246 47.9688L71.6855 47.5781C71.6855 43.8802 70.722 40.9766 68.7949 38.8672C66.8678 36.7578 64.4199 35.7031 61.4512 35.7031H60.4746C58.2871 35.7031 56.998 36.237 56.6074 37.3047C56.4772 37.6432 56.4121 39.6094 56.4121 43.2031V49.1406L56.373 50.625V55.6641ZM40.3965 83.0469C40.3965 81.25 41.1647 79.8307 42.7012 78.7891C44.2376 77.7214 45.123 76.5365 45.3574 75.2344C45.722 73.1771 45.9043 67.3047 45.9043 57.6172C45.9043 47.9297 45.6699 42.1224 45.2012 40.1953C44.7324 38.2422 44.0684 36.901 43.209 36.1719C41.334 34.6094 40.3965 33.5938 40.3965 33.125V32.5C40.3965 31.4323 41.373 30.7552 43.3262 30.4688C43.873 30.3906 46.6465 30.3516 51.6465 30.3516L56.8027 30.2734H57.8184L60.9043 30.3906H64.0293C73.248 30.3906 79.3939 33.2422 82.4668 38.9453C83.6387 41.1328 84.2246 43.4505 84.2246 45.8984V46.9922C84.2246 51.3672 82.623 55.0651 79.4199 58.0859C76.2168 61.0807 71.6986 62.8385 65.8652 63.3594C62.4277 63.6719 60.4876 63.9323 60.0449 64.1406C58.3001 64.9219 57.4277 67.8255 57.4277 72.8516C57.4277 75.1693 58.235 76.9792 59.8496 78.2812C62.0111 80.026 63.0918 81.4974 63.0918 82.6953C63.0918 83.6328 62.0892 84.2839 60.084 84.6484C58.1048 85.013 55.2272 85.1953 51.4512 85.1953C44.0814 85.1953 40.3965 84.4792 40.3965 83.0469Z" fill="#3C48F6"/>
</svg>
